Patient4_TMGait_0pt6_01_right_24_EMG.mot
version=1
nRows=20
nColumns=33
inDegrees=no
endheader
time	1LAddLong	2LGlutMax	3LGlutMed	4LIliopsoas	5LSemiMemb	6LBicFemLong	7LRecFem	8LVastMed	9LVastLat	10LGasMed	11LTibAnt	12lTibPost	13LPeroneusLong	14LSol	15LExtDigLong	16LFlexDigLong	17RAddLong	18RGlutMax	19RGlutMed	20RIliopsoas	21RSemiMemb	22RBicFemLong	23RRecFem	24RVastMed	25RVastLat	26RGasMed	27RTibAnt	28RTibPost	29RPeroneusLong	30RSol	31RExtDigLong	32RFlexDigLong
29.465	-0.019379	0.63629	0.039825	0.003967	-0.07782	0.31326	0.094147	-0.002899	-0.13809	0.014343	-0.020905	-0.004272	0.061646	-0.087128	-0.019989	0.000458	0.016022	-0.26672	-0.26413	0.011902	-0.055847	-0.071564	-0.14191	0.050354	0.052948	-0.014496	-0.043335	-0.006409	0.91202	-0.003815	-0.001221	-0.015869
29.466	-0.023499	0.70572	0.064697	0.000763	-0.055389	0.27771	-0.051727	-0.00946	-0.1831	0.027618	-0.007629	-0.003052	-0.06485	-0.007172	0.056763	-0.002136	0.006409	-0.29083	-0.17944	0.015717	0.019073	-0.063324	-0.14847	0.050812	0.053711	-0.02533	0.043182	-0.005798	-0.15884	0.010376	-0.003662	-0.017548
29.467	-0.02655	0.70587	0.024414	0.003815	-0.031433	0.2684	-0.062714	-0.008392	-0.15533	0.034027	0.003204	-0.00946	-0.059814	0.006104	0.080109	0.004578	0.016937	-0.32928	-0.18295	0.031891	0.048676	0.001984	-0.16327	0.033112	0.042267	-0.0177	0.028839	-0.008698	-0.52963	0.042114	-0.001526	-0.014191
29.468	-0.09201	0.62943	0.033264	0.009918	0.091095	0.22995	0.041351	-0.005951	-0.1178	0.051575	0.031586	-0.005951	0.003204	-0.056458	0.050354	-0.005646	0.001221	-0.32242	-0.31296	-0.024719	0.096893	-0.10193	-0.11749	0.12299	0.06424	-0.000458	-0.024567	-0.005188	-0.80902	0.10834	0.001373	-0.008545
29.469	-0.058899	0.59464	0.054474	0.007629	0.18448	0.21774	0.1503	-0.010529	-0.11215	0.037384	0.045624	-0.001678	0.070038	-0.016174	0.02533	0.004272	-0.000305	-0.24887	-0.12283	-0.036316	0.048218	-0.15701	-0.11963	0.044556	0.021057	0.009613	-0.015259	-0.006561	-0.38727	0.2945	-0.000916	-0.014954
29.47	-0.033722	0.57419	0.095215	-0.00351	0.14908	0.30716	0.16876	0.00412	-0.095978	0.03418	-0.010529	-0.002594	0.022736	0.067139	0.040436	0.005646	0.000763	-0.2655	-0.073547	-0.0354	0.001373	-0.10208	-0.13733	0.014191	-0.000458	0.02533	0.033264	-0.006409	-0.069122	0.32211	-0.002136	-0.010376
29.471	-0.010223	0.44891	0.055847	0.00351	0.080719	0.10941	0.12894	0.016785	0.091553	0.048218	-0.019073	0.002136	-0.054321	0.066986	0.059052	-0.002594	-0.016327	-0.23514	-0.13657	-0.011902	-0.044403	0.04776	-0.12665	0.027161	0.000305	0.041046	0.037689	-0.007935	-0.35751	0.25559	-0.002441	-0.014648
29.472	0.032654	0.30899	0.063477	0.001984	0.023193	-0.052338	0.065155	0.006409	0.23193	0.062561	0.048981	-0.000153	-0.10422	0.082245	0.17242	-0.005493	-0.019684	-0.26093	-0.16266	0.023651	-0.045624	0.074768	-0.099335	0.057983	-0.002594	0.014954	0.15732	-0.003967	-0.067596	0.2182	-0.007629	-0.017395
29.473	0.048065	0.30624	0.045471	0.009003	0.094452	0.007172	-0.016785	0.010834	0.30395	0.04425	0.17319	0.007172	-0.072021	0.11612	0.028839	-0.003815	-0.026398	-0.26352	-0.18707	-0.012817	0.095215	-0.032043	-0.14542	0.059814	-0.012054	-0.015564	0.16861	-0.001984	0.4657	0.18936	-0.002747	-0.02594
29.474	0.05722	0.27756	0.039215	0.006714	0.0914	0.39551	-0.02182	0.011749	0.31281	0.009155	0.21393	0.009155	0.064697	0.15549	0.26474	0.000916	-0.021362	-0.26428	-0.20966	-0.037384	0.33936	-0.18646	-0.11368	0.0737	-0.030365	-0.0383	0.12924	-0.003815	0.48279	0.0383	-0.001831	-0.021515
29.475	0.042572	0.1593	0.02121	-0.004425	-0.02533	0.52307	0.033569	0.010376	0.26749	-0.010071	0.1358	0.005646	0.12726	0.19791	0.29968	0.007172	-0.009613	-0.24323	-0.18478	-0.001068	0.29098	-0.10986	-0.11551	0.075836	-0.011902	-0.034027	0.012817	-0.005035	0.25375	0.088043	-0.003204	-0.021667
29.476	0.040283	0.039673	0.023651	0.002441	-0.079498	0.25436	-0.12283	0.028534	0.13199	-0.00473	0.005646	0.015411	0.095215	0.18982	0.3865	0.008392	-0.003052	-0.24307	-0.077057	-0.007019	0.1828	-0.10757	-0.12116	0.072632	-0.029907	-0.007324	-0.32028	-0.005341	0.004883	0.086975	-0.009155	-0.020447
29.477	0.05249	-0.015717	0.000458	0.005493	-0.073242	0.19318	-0.21866	0.023499	-0.079498	0.014343	0.3186	0.007629	-0.018311	0.18555	0.34927	0.010986	-0.02182	-0.24796	-0.08194	0.034485	0.10941	-0.10742	-0.12543	0.057831	-0.035553	-0.011749	-0.25482	-0.016937	-0.039063	-0.15762	-0.002289	-0.027313
29.478	0.039825	-0.010834	-0.06134	0.024719	0.088348	0.21469	-0.17838	0.015106	-0.1831	0.032501	0.20248	0.005798	-0.029907	0.15533	-0.039215	0.005188	-0.021057	-0.17761	-0.052185	0.031891	0.087433	-0.043793	-0.13214	0.073547	-0.025177	-0.010986	0.090179	-0.008545	0.052948	-0.16235	-0.005341	-0.027161
29.479	0.006714	-0.048523	-0.14999	0.005341	0.1358	0.015259	-0.098419	0.020752	-0.21576	0.010376	-0.25681	0.010986	0.063477	0.12878	-0.25406	0.017548	-0.002594	-0.17303	-0.086212	-0.015717	0.06073	-0.0354	-0.11795	0.042267	-0.04364	-0.000916	0.2594	0.015106	0.010986	-0.16876	-0.008392	-0.028992
29.48	0.029297	-0.16388	-0.16968	0.000305	0.0177	0.22949	-0.029297	0.01297	-0.20126	-0.03891	-0.44601	0.019836	0.14358	0.099335	-0.35461	0.015411	0.034027	-0.14496	0.007019	-0.040588	0.033875	-0.049286	-0.10452	-0.00351	-0.047302	0.009155	0.18906	-0.002289	0.041656	-0.17212	-0.007782	-0.023193
29.481	0.00061	-0.23605	-0.1741	0.009918	-0.053558	0.29984	0.000916	-0.007782	-0.26032	-0.068665	-0.21698	0.022888	0.27695	0.093536	-0.25772	0.022125	0.06012	-0.12665	0.056	-0.03952	0.036469	-0.035858	-0.088501	-0.005341	-0.038452	-0.012512	0.32303	-0.004578	0.062866	-0.14587	0.005798	-0.029297
29.482	-0.050354	-0.2858	-0.12756	0.007324	-0.10773	-0.11673	0.059204	-0.021973	-0.35156	0.004272	-0.11948	0.022736	0.19669	0.001068	-0.58991	0.007019	0.036316	-0.14816	-0.09964	0.041046	0.035095	0.006714	-0.10407	-0.031586	-0.027618	-0.005188	0.39887	-0.003967	0.005341	-0.079193	-0.005188	-0.023651
29.483	-0.017548	-0.25803	-0.052338	0.013123	-0.11292	-0.50705	0.02533	-0.018768	-0.39642	0.03006	-0.17212	0.02121	0.069733	-0.042114	-0.16159	0.02655	0.002136	-0.098724	-0.19974	0.012512	-0.009308	0.0177	-0.10635	-0.10788	-0.02243	0.000763	0.11353	-0.003967	-0.07843	-0.095062	-0.00351	-0.024109
29.484	0.00473	-0.33493	-0.023499	0.008087	-0.017548	-0.74326	0.031128	-0.009003	-0.4129	0.007629	-0.15305	0.029907	0.034485	-0.00351	0.12222	0.019073	-0.016785	-0.13214	-0.026703	0.052643	-0.039673	-0.00946	-0.10895	-0.095978	-0.0177	-0.017395	-0.16647	-0.006561	-0.23499	-0.14099	0.000916	-0.013885
